<svg width="16" height="16" viewBox="0 0 16 16" fill="none" xmlns="http://www.w3.org/2000/svg">
    <path d="M4.334 12H3.4a.4.4 0 01-.4-.4v-.934a.4.4 0 01.117-.283l6.6-6.6a.4.4 0 01.566 0l.934.934a.4.4 0 010 .566l-6.6 6.6a.4.4 0 01-.283.117z" fill="#4D4D4D"/>
    <path d="M1 14h14" stroke="#4D4D4D" stroke-width="1.5" stroke-linecap="round" stroke-linejoin="round"/>
    <path d="M12.217 3.717l-.934-.934a.4.4 0 010-.566l.934-.934a.4.4 0 01.566 0l.934.934a.4.4 0 010 .566l-.934.934a.4.4 0 01-.566 0z" fill="#4D4D4D"/>
</svg>
