<svg width="104" height="119" viewBox="0 0 104 119" fill="none" xmlns="http://www.w3.org/2000/svg">
    <path d="M74 1c-7.76 0-14.883 1.92-20.132 5.131C48.654 9.321 45 14 45 19.526v62.888c0 5.982 3.526 11.178 8.777 14.793C59.038 100.827 66.194 103 74 103c7.806 0 14.962-2.174 20.223-5.794C99.475 93.592 103 88.396 103 82.414V19.526c0-5.527-3.654-10.205-8.869-13.395C88.881 2.92 81.759 1 74 1z" fill="#fff" stroke="#fff" stroke-width="2"/>
    <ellipse cx="74" cy="20.001" rx="26" ry="16" fill="#fff" stroke="#70CE98" stroke-width="2"/>
    <path d="M100 31.25c0 8.837-11.64 16-26 16s-26-7.163-26-16" stroke="#70CE98" stroke-width="2"/>
    <path d="M100 42c0 9.942-11.64 18-26 18s-26-8.058-26-18" stroke="#70CE98" stroke-width="2"/>
    <path d="M100 56.001c0 8.837-11.64 16-26 16s-26-7.163-26-16" stroke="#70CE98" stroke-width="2"/>
    <path d="M100 68.002c0 9.94-11.64 18-26 18s-26-8.06-26-18" stroke="#70CE98" stroke-width="2"/>
    <path d="M100 20.001v61c0 9.942-11.64 18.001-26 18.001s-26-8.059-26-18V20" stroke="#70CE98" stroke-width="2"/>
    <path d="M30 39c-7.76 0-14.885 1.94-20.135 5.184C4.65 47.406 1 52.128 1 57.7v38.52c0 6.033 3.52 11.278 8.773 14.929 5.261 3.657 12.419 5.853 20.227 5.853 7.809 0 14.966-2.196 20.227-5.853 5.253-3.651 8.774-8.896 8.774-14.928V57.7c0-5.572-3.65-10.294-8.865-13.517-5.25-3.243-12.374-5.182-20.136-5.182z" fill="#fff" stroke="#fff" stroke-width="2"/>
    <ellipse cx="30.001" cy="58.001" rx="26" ry="16" fill="#fff" stroke="#70CE98" stroke-width="2"/>
    <path d="M56.001 70.002c0 8.836-11.64 16-26 16s-26-7.164-26-16" stroke="#70CE98" stroke-width="2"/>
    <path d="M56.001 82.001c0 9.941-11.64 18-26 18s-26-8.059-26-18" stroke="#70CE98" stroke-width="2"/>
    <path d="M56.001 58.002v37c0 9.941-11.64 18-26 18s-26-8.059-26-18v-37" stroke="#70CE98" stroke-width="2"/>
</svg>
