<svg width="16" height="16" viewBox="0 0 16 16" fill="none" xmlns="http://www.w3.org/2000/svg">
<path d="M4.33431 12H3.4C3.17909 12 3 11.8209 3 11.6V10.6657C3 10.5596 3.04214 10.4579 3.11716 10.3828L9.71716 3.78284C9.87337 3.62663 10.1266 3.62663 10.2828 3.78284L11.2172 4.71716C11.3734 4.87337 11.3734 5.12663 11.2172 5.28284L4.61716 11.8828C4.54214 11.9579 4.4404 12 4.33431 12Z" fill="#4D4D4D"/>
<path d="M1 14H15" stroke="#4D4D4D" stroke-width="1.5" stroke-linecap="round" stroke-linejoin="round"/>
<path d="M12.2172 3.71716L11.2828 2.78284C11.1266 2.62663 11.1266 2.37337 11.2828 2.21716L12.2172 1.28284C12.3734 1.12663 12.6266 1.12663 12.7828 1.28284L13.7172 2.21716C13.8734 2.37337 13.8734 2.62663 13.7172 2.78284L12.7828 3.71716C12.6266 3.87337 12.3734 3.87337 12.2172 3.71716Z" fill="#4D4D4D"/>
</svg>
