<svg width="104" height="119" viewBox="0 0 104 119" fill="none" xmlns="http://www.w3.org/2000/svg">
<path d="M73.9997 1C66.2401 1 59.1175 2.91997 53.8683 6.13119C48.6538 9.32123 44.9993 13.9991 44.9993 19.526V82.4135C44.9993 88.3959 48.5248 93.5923 53.7765 97.2067C59.0371 100.827 66.1933 103.001 73.9997 103.001C81.806 103.001 88.9623 100.827 94.2229 97.2067C99.4746 93.5923 103 88.3959 103 82.4135V19.526C103 13.9991 99.3455 9.32123 94.131 6.13119C88.8818 2.91997 81.7592 1 73.9997 1Z" fill="white" stroke="white" stroke-width="2"/>
<ellipse cx="73.9996" cy="20.0006" rx="26.0004" ry="16.0002" fill="white" stroke="#70CE98" stroke-width="2"/>
<path d="M100 31.2505C100 40.0872 88.3592 47.2508 73.9996 47.2508C59.64 47.2508 47.9993 40.0872 47.9993 31.2505" stroke="#70CE98" stroke-width="2"/>
<path d="M100 42.0005C100 51.9418 88.3592 60.0008 73.9996 60.0008C59.64 60.0008 47.9993 51.9418 47.9993 42.0005" stroke="#70CE98" stroke-width="2"/>
<path d="M100 56.0014C100 64.8381 88.3592 72.0016 73.9996 72.0016C59.64 72.0016 47.9993 64.8381 47.9993 56.0014" stroke="#70CE98" stroke-width="2"/>
<path d="M100 68.0016C100 77.9428 88.3592 86.0018 73.9996 86.0018C59.64 86.0018 47.9993 77.9428 47.9993 68.0016" stroke="#70CE98" stroke-width="2"/>
<path d="M100 20.001V81.0018C100 90.9431 88.3592 99.0021 73.9996 99.0021C59.64 99.0021 47.9993 90.9431 47.9993 81.0018V20.001" stroke="#70CE98" stroke-width="2"/>
<path d="M30.0004 39.0008C22.2391 39.0008 15.1151 40.9402 9.86533 44.1835C4.64885 47.4062 1 52.1278 1 57.6997V96.2208C1 102.253 4.52067 107.498 9.77342 111.149C15.0344 114.806 22.192 117.002 30.0004 117.002C37.8088 117.002 44.9664 114.806 50.2274 111.149C55.4801 107.498 59.0008 102.253 59.0008 96.2208V57.6997C59.0008 52.1278 55.3519 47.4062 50.1355 44.1835C44.8857 40.9402 37.7617 39.0008 30.0004 39.0008Z" fill="white" stroke="white" stroke-width="2"/>
<ellipse cx="30.0009" cy="58.0006" rx="26.0004" ry="16.0002" fill="white" stroke="#70CE98" stroke-width="2"/>
<path d="M56.0012 70.0016C56.0012 78.8383 44.3605 86.0019 30.0009 86.0019C15.6413 86.0019 4.00049 78.8383 4.00049 70.0016" stroke="#70CE98" stroke-width="2"/>
<path d="M56.0012 82.0011C56.0012 91.9424 44.3605 100.001 30.0009 100.001C15.6413 100.001 4.00049 91.9424 4.00049 82.0011" stroke="#70CE98" stroke-width="2"/>
<path d="M56.0012 58.0015V95.0021C56.0012 104.943 44.3605 113.002 30.0009 113.002C15.6413 113.002 4.00049 104.943 4.00049 95.0021V58.0015" stroke="#70CE98" stroke-width="2"/>
</svg>
