<svg width="16" height="16" viewBox="0 0 16 16" fill="none" xmlns="http://www.w3.org/2000/svg">
<path fill-rule="evenodd" clip-rule="evenodd" d="M6.26944 0C2.80678 0 0 2.8079 0 6.27027C0 9.73264 2.80678 12.5405 6.26944 12.5405C7.73045 12.5405 9.07468 12.0407 10.1406 11.2027L14.9377 16.0005L15.9985 14.9399L11.2012 10.1419C12.0391 9.07578 12.5389 7.73129 12.5389 6.27027C12.5389 2.8079 9.73211 0 6.26944 0ZM1.5 6.27027C1.5 3.63604 3.6355 1.5 6.26944 1.5C8.90339 1.5 11.0389 3.63604 11.0389 6.27027C11.0389 8.90451 8.90339 11.0405 6.26944 11.0405C3.6355 11.0405 1.5 8.90451 1.5 6.27027Z" fill="#878D98"/>
</svg>
